# xmcd
#
# Track frame offsets: 
#        183
#        22573
#        37323
#        47858
#        63765
#        75190
#        90253
#        106633
#        122633
#        141785
#        160105
#        177928
#        191980
#        208748
#        225720
#        252580
#
# Disc length: 3513 seconds
#
# Revision: 0
# Processed by: cddbd v1.5.1PL0 Copyright (c) Steve Scherf et al.
# Submitted via: ExactAudioCopy v0.95a5
#
DISCID=c90db710
DTITLE=Backdoor Blues Band - All Night Long
DYEAR=1991
DGENRE=Blues
TTITLE0=Don't Start Me Talking
TTITLE1=Little By Little
TTITLE2=Give Me All Your Loving
TTITLE3=Lonely Nights
TTITLE4=Homework
TTITLE5=Miss Bessie
TTITLE6=Have A Good Time
TTITLE7=Don't Go No Further
TTITLE8=Live The Life I Love
TTITLE9=Strange Things
TTITLE10=Wang Dang Doodle
TTITLE11=She's Tuff
TTITLE12=Nothing You Can Do
TTITLE13=Strange Land
TTITLE14=Bring It On Home
TTITLE15=I Hear You Knocking
EXTD=
EXTT0=
EXTT1=
EXTT2=
EXTT3=
EXTT4=
EXTT5=
EXTT6=
EXTT7=
EXTT8=
EXTT9=
EXTT10=
EXTT11=
EXTT12=
EXTT13=
EXTT14=
EXTT15=
PLAYORDER=
